<?xml version="1.0" encoding="utf-8" ?><svg xmlns="http://www.w3.org/2000/svg" xmlns:xlink="http://www.w3.org/1999/xlink" width="896" height="896" viewBox="0 0 896 896"><path fill="#F9F8F2" d="M0 0L896 0L896 896L0 896L0 0Z"/><defs><linearGradient id="gradient_0" gradientUnits="userSpaceOnUse" x1="450.27252" y1="72.775429" x2="457.55988" y2="434.14706"><stop offset="0" stop-color="#0E2328"/><stop offset="1" stop-color="#45312A"/></linearGradient></defs><path fill="url(#gradient_0)" d="M145.223 78.2647C149.506 77.7516 159.343 77.9999 163.982 78.002L198.826 78.0207L304.976 78.057L613.657 78.0765L700.919 78.0357C716.54 78.0506 734.628 78.479 750.057 77.8651C734.787 89.3652 726.874 95.0516 717.072 112.269C710.569 123.69 708.811 127.024 706.821 141.121C705.157 152.91 705.666 164.761 705.665 176.706L705.646 226.034L705.697 391.782C706.928 398.109 705.898 418.077 707.868 422.151C732.441 423.914 758.094 420.165 782.756 423.712C788.211 424.497 792.79 427.747 797.822 429.655C805.159 431.085 808.697 428.302 815.823 435.607C820.885 441.088 821.81 445.968 821.725 453.079C821.529 469.44 806.368 472.916 793.227 472.224C783.115 471.692 785.958 471.918 779.758 476.448C777.423 478.154 761.602 480.243 758.415 480.075C758.625 479.557 758.485 479.817 758.854 479.309C757.533 478.456 748.008 477.742 745.947 477.796C739.475 477.938 732.142 480.073 725.825 477.802C720.799 475.994 718.351 471.347 712.359 472.315C710.744 472.576 709.526 472.088 707.702 472.883C707.584 485.454 706.777 497.68 706.089 510.228C705.962 512.546 705.976 514.968 705.749 517.268C705.703 522.55 705.75 528.129 705.603 533.383L705.723 729.703C705.592 753.04 705.641 776.377 705.868 799.713C705.95 808.307 705.309 820.224 706.107 828.428C700.613 822.129 694.047 816.281 688.084 810.358C677.556 799.9 666.02 787.585 655.221 777.541C649.641 783.811 642.702 790.081 636.661 796.054L604.026 828.5C597.325 823.823 590.932 816.23 584.777 810.532C576.532 802.901 568.371 794.88 560.499 786.863C557.931 784.248 553.289 779.945 551.205 777.34C540.509 788.145 529.687 798.826 518.741 809.379C512.574 815.423 505.263 823.158 499.003 828.649C482.15 813.858 463.562 793.625 447.307 777.862C441.611 783.291 435.542 789.186 430.076 794.873C419.148 806.243 406.582 817.052 395.95 828.595C392.349 826.108 388.026 821.584 384.78 818.399L366.408 800.127C360.711 794.508 348.345 783.302 343.638 777.725C331.071 789.259 318.529 802.685 306.105 814.468C301.493 818.842 296.148 824.961 291.323 828.759C285.936 824.337 277.381 815.548 272.185 810.419L239.181 777.424C223.544 792.545 208.674 808.738 193.012 823.857C192.627 824.228 192.269 825.672 192.07 826.215L191.891 826.733C190.969 826.332 191.465 826.513 190.396 826.197L188.497 827.582C187.741 826.805 187.977 827.169 187.998 825.663C188.728 767.055 188.897 708.443 188.503 649.832L188.51 583.564C188.505 573.165 188.868 560.747 188.456 550.607C187.48 544.356 188.475 531.424 187.967 524.525C187.112 512.919 186.644 501.226 186.201 489.604C186.082 486.465 186.471 475.218 185.835 473.073C181.331 470.113 171.911 476.55 166.369 476.821C160.079 477.214 151.543 476.366 145.449 474.57C138.59 472.548 135.47 474.085 129.144 473.557C115.685 472.434 101.477 473.283 88.2149 471.611C79.1588 470.469 72.4789 462.853 71.2896 454.128C70.4075 449.36 72.9788 436.852 77.8488 435.656C83.7688 428.024 92.7278 430.133 100.927 429.966C102.808 429.928 109.988 425.186 112.765 425.029C116.651 424.81 120.536 424.785 124.429 424.715C131.565 424.632 138.698 424.403 145.824 424.029C153.413 423.652 161.263 422.143 168.723 421.861C174.18 421.654 179.847 423.457 185.845 423.11C187.359 421.759 186.587 409.995 186.639 407.153C186.759 400.566 187.361 394.246 187.865 387.697C188.342 381.497 187.586 374.755 188.471 368.58C188.76 356.066 188.374 342.373 188.34 329.764L188.365 258.704L188.328 193.188C188.217 158.515 192.143 124.407 165.914 97.1791C163.723 94.9047 160.569 92.4355 158.654 90.1823L158.148 89.5766C156.464 88.2141 144.823 79.5064 144.577 78.9643L145.223 78.2647Z"/><path fill="#1E2829" d="M188.683 529.189L189.173 528.517C189.246 525.975 189.198 515.716 190.268 514.155C194.617 514.018 204.762 519.446 210.812 520.029C226.508 521.486 243.348 520.714 259.01 518.771C264.013 518.151 268.587 514.745 274.393 514.793C288.07 514.854 301.759 515.186 315.418 515.929C316.899 516.01 320.135 516.744 321.859 517.009C339.4 519.712 353.846 518.997 371.379 517.608C380.807 516.881 390.25 516.382 399.701 516.11C406.47 515.952 413.245 515.919 420.014 515.983C421.372 515.996 422.64 516.615 423.991 516.733C433.129 517.534 442.371 516.536 451.269 514.385C452.573 514.069 453.994 512.918 455.321 512.547C464.382 512.485 476.901 512.027 485.533 513.89C488.08 514.44 490.771 515.261 492.97 515.883C496.654 516.925 501.56 519.544 505.328 519.715C511.087 519.976 516.931 519.061 522.724 519.087C526.093 519.103 529.36 519.492 532.634 519.493C536.976 519.495 541.205 519.124 545.578 519.24C549.928 519.298 554.484 520.154 558.821 519.968C562.208 519.823 565.527 518.996 568.99 518.835C573.062 518.646 578.004 519.495 581.978 519.02C591.573 517.871 600.975 516.556 610.683 516.883C622.584 516.81 632.369 518.148 644.162 519.706C652.323 520.783 660.629 522.531 668.843 522.702C674.844 522.827 681.027 523.221 687.005 523.278C692.024 523.325 696.674 522.088 701.895 523.38C702.896 523.627 703.537 523.942 704.01 524.859C705.601 527.95 703.488 530.341 705.603 533.383L705.723 729.703C705.592 753.04 705.641 776.377 705.868 799.713C705.95 808.307 705.309 820.224 706.107 828.428C700.613 822.129 694.047 816.281 688.084 810.358C677.556 799.9 666.02 787.585 655.221 777.541C649.641 783.811 642.702 790.081 636.661 796.054L604.026 828.5C597.325 823.823 590.932 816.23 584.777 810.532C576.532 802.901 568.371 794.88 560.499 786.863C557.931 784.248 553.289 779.945 551.205 777.34C540.509 788.145 529.687 798.826 518.741 809.379C512.574 815.423 505.263 823.158 499.003 828.649C482.15 813.858 463.562 793.625 447.307 777.862C441.611 783.291 435.542 789.186 430.076 794.873C419.148 806.243 406.582 817.052 395.95 828.595C392.349 826.108 388.026 821.584 384.78 818.399L366.408 800.127C360.711 794.508 348.345 783.302 343.638 777.725C331.071 789.259 318.529 802.685 306.105 814.468C301.493 818.842 296.148 824.961 291.323 828.759C285.936 824.337 277.381 815.548 272.185 810.419L239.181 777.424C223.544 792.545 208.674 808.738 193.012 823.857C192.627 824.228 192.269 825.672 192.07 826.215L191.891 826.733C190.969 826.332 191.465 826.513 190.396 826.197L188.497 827.582C187.741 826.805 187.977 827.169 187.998 825.663C188.728 767.055 188.897 708.443 188.503 649.832L188.51 583.564C188.505 573.165 188.868 560.747 188.456 550.607C188.557 543.912 188.195 535.581 188.683 529.189Z"/><path fill="#F9F8F2" d="M267.193 538.729C279.404 539.267 293.854 538.931 306.211 538.932L377.502 538.846L440.521 538.947C453.658 538.946 466.685 539.108 479.808 538.465C480.192 546.951 479.868 555.964 479.945 564.507C479.968 567.057 480.143 577.681 479.768 579.563L478.734 579.824C456.549 579.667 434.362 579.627 412.176 579.701L266.431 579.679C265.148 567.764 266.85 553.489 265.862 541.3C265.747 539.88 266.254 539.564 267.193 538.729Z"/><path fill="#F47141" d="M77.8488 435.656C83.7688 428.024 92.7278 430.133 100.927 429.966C102.808 429.928 109.988 425.186 112.765 425.029C116.651 424.81 120.536 424.785 124.429 424.715C131.565 424.632 138.698 424.403 145.824 424.029C153.413 423.652 161.263 422.143 168.723 421.861C174.18 421.654 179.847 423.457 185.845 423.11C187.359 421.759 186.587 409.995 186.639 407.153C186.759 400.566 187.361 394.246 187.865 387.697C188.342 381.497 187.586 374.755 188.471 368.58L188.959 421.281C189.144 423.974 189.14 427.273 189.21 430.018C228.022 430.236 266.835 430.218 305.647 429.962L556.58 429.928L640.747 430.186C661.734 430.132 684.22 429.498 705.069 430.439C705.395 425.862 705.336 420.333 705.578 415.557C705.556 407.728 705.419 399.581 705.697 391.782C706.928 398.109 705.898 418.077 707.868 422.151C732.441 423.914 758.094 420.165 782.756 423.712C788.211 424.497 792.79 427.747 797.822 429.655C805.159 431.085 808.697 428.302 815.823 435.607C820.885 441.088 821.81 445.968 821.725 453.079C821.529 469.44 806.368 472.916 793.227 472.224C783.115 471.692 785.958 471.918 779.758 476.448C777.423 478.154 761.602 480.243 758.415 480.075C758.625 479.557 758.485 479.817 758.854 479.309C757.533 478.456 748.008 477.742 745.947 477.796C739.475 477.938 732.142 480.073 725.825 477.802C720.799 475.994 718.351 471.347 712.359 472.315C710.744 472.576 709.526 472.088 707.702 472.883C707.584 485.454 706.777 497.68 706.089 510.228C705.962 512.546 705.976 514.968 705.749 517.268C705.703 522.55 705.75 528.129 705.603 533.383C703.488 530.341 705.601 527.95 704.01 524.859C703.537 523.942 702.896 523.627 701.895 523.38C696.674 522.088 692.024 523.325 687.005 523.278C681.027 523.221 674.844 522.827 668.843 522.702C660.629 522.531 652.323 520.783 644.162 519.706C632.369 518.148 622.584 516.81 610.683 516.883C600.975 516.556 591.573 517.871 581.978 519.02C578.004 519.495 573.062 518.646 568.99 518.835C565.527 518.996 562.208 519.823 558.821 519.968C554.484 520.154 549.928 519.298 545.578 519.24C541.205 519.124 536.976 519.495 532.634 519.493C529.36 519.492 526.093 519.103 522.724 519.087C516.931 519.061 511.087 519.976 505.328 519.715C501.56 519.544 496.654 516.925 492.97 515.883C490.771 515.261 488.08 514.44 485.533 513.89C476.901 512.027 464.382 512.485 455.321 512.547C453.994 512.918 452.573 514.069 451.269 514.385C442.371 516.536 433.129 517.534 423.991 516.733C422.64 516.615 421.372 515.996 420.014 515.983C413.245 515.919 406.47 515.952 399.701 516.11C390.25 516.382 380.807 516.881 371.379 517.608C353.846 518.997 339.4 519.712 321.859 517.009C320.135 516.744 316.899 516.01 315.418 515.929C301.759 515.186 288.07 514.854 274.393 514.793C268.587 514.745 264.013 518.151 259.01 518.771C243.348 520.714 226.508 521.486 210.812 520.029C204.762 519.446 194.617 514.018 190.268 514.155C189.198 515.716 189.246 525.975 189.173 528.517L188.683 529.189C188.195 535.581 188.557 543.912 188.456 550.607C187.48 544.356 188.475 531.424 187.967 524.525C187.112 512.919 186.644 501.226 186.201 489.604C186.082 486.465 186.471 475.218 185.835 473.073C181.331 470.113 171.911 476.55 166.369 476.821C160.079 477.214 151.543 476.366 145.449 474.57C138.59 472.548 135.47 474.085 129.144 473.557C115.685 472.434 101.477 473.283 88.2149 471.611C79.1588 470.469 72.4789 462.853 71.2896 454.128C70.4075 449.36 72.9788 436.852 77.8488 435.656Z"/><defs><linearGradient id="gradient_1" gradientUnits="userSpaceOnUse" x1="446.80911" y1="522.84387" x2="447.33154" y2="469.97308"><stop offset="0" stop-color="#2C2C29"/><stop offset="1" stop-color="#853E29"/></linearGradient></defs><path fill="url(#gradient_1)" d="M189.025 471.65L704.751 471.705C704.922 479.34 705.894 485.952 705.797 493.684C705.723 501.426 705.523 509.56 705.749 517.268C705.703 522.55 705.75 528.129 705.603 533.383C703.488 530.341 705.601 527.95 704.01 524.859C703.537 523.942 702.896 523.627 701.895 523.38C696.674 522.088 692.024 523.325 687.005 523.278C681.027 523.221 674.844 522.827 668.843 522.702C660.629 522.531 652.323 520.783 644.162 519.706C632.369 518.148 622.584 516.81 610.683 516.883C600.975 516.556 591.573 517.871 581.978 519.02C578.004 519.495 573.062 518.646 568.99 518.835C565.527 518.996 562.208 519.823 558.821 519.968C554.484 520.154 549.928 519.298 545.578 519.24C541.205 519.124 536.976 519.495 532.634 519.493C529.36 519.492 526.093 519.103 522.724 519.087C516.931 519.061 511.087 519.976 505.328 519.715C501.56 519.544 496.654 516.925 492.97 515.883C490.771 515.261 488.08 514.44 485.533 513.89C476.901 512.027 464.382 512.485 455.321 512.547C453.994 512.918 452.573 514.069 451.269 514.385C442.371 516.536 433.129 517.534 423.991 516.733C422.64 516.615 421.372 515.996 420.014 515.983C413.245 515.919 406.47 515.952 399.701 516.11C390.25 516.382 380.807 516.881 371.379 517.608C353.846 518.997 339.4 519.712 321.859 517.009C320.135 516.744 316.899 516.01 315.418 515.929C301.759 515.186 288.07 514.854 274.393 514.793C268.587 514.745 264.013 518.151 259.01 518.771C243.348 520.714 226.508 521.486 210.812 520.029C204.762 519.446 194.617 514.018 190.268 514.155C189.198 515.716 189.246 525.975 189.173 528.517L188.683 529.189C188.326 527.532 188.376 520.852 188.373 518.819C188.355 508.255 188.931 498.036 188.892 487.431L189.025 471.65Z"/><path fill="#FBB59A" d="M77.8488 435.656C83.7688 428.024 92.7278 430.133 100.927 429.966C102.808 429.928 109.988 425.186 112.765 425.029C116.651 424.81 120.536 424.785 124.429 424.715C131.565 424.632 138.698 424.403 145.824 424.029C153.413 423.652 161.263 422.143 168.723 421.861C174.18 421.654 179.847 423.457 185.845 423.11C187.359 421.759 186.587 409.995 186.639 407.153C186.759 400.566 187.361 394.246 187.865 387.697C188.342 381.497 187.586 374.755 188.471 368.58L188.959 421.281C188.556 423.61 188.665 428.526 188.14 430.043C184.418 430.98 172.425 430.513 167.847 430.492L119.873 430.525C109.062 430.519 96.5439 429.88 85.8284 431.618C82.8117 432.108 78.9577 435.619 76.7646 437.837C67.4549 450.405 72.9003 468.877 89.3782 470.807C99.9113 472.041 111.492 471.571 122.177 471.566L174.598 471.56C177.883 471.541 183.775 471.086 186.712 471.582C189.525 472.058 188.45 484.854 188.892 487.431C188.931 498.036 188.355 508.255 188.373 518.819C188.376 520.852 188.326 527.532 188.683 529.189C188.195 535.581 188.557 543.912 188.456 550.607C187.48 544.356 188.475 531.424 187.967 524.525C187.112 512.919 186.644 501.226 186.201 489.604C186.082 486.465 186.471 475.218 185.835 473.073C181.331 470.113 171.911 476.55 166.369 476.821C160.079 477.214 151.543 476.366 145.449 474.57C138.59 472.548 135.47 474.085 129.144 473.557C115.685 472.434 101.477 473.283 88.2149 471.611C79.1588 470.469 72.4789 462.853 71.2896 454.128C70.4075 449.36 72.9788 436.852 77.8488 435.656Z"/><path fill="#FBB59A" d="M705.697 391.782C706.928 398.109 705.898 418.077 707.868 422.151C732.441 423.914 758.094 420.165 782.756 423.712C788.211 424.497 792.79 427.747 797.822 429.655C805.159 431.085 808.697 428.302 815.823 435.607L815.452 436.591C808.112 429.178 797.654 430.475 787.919 430.389C778.16 430.302 768.401 430.309 758.643 430.412C741.48 430.541 723.163 430.094 706.266 430.562C705.861 425.684 705.76 420.471 705.578 415.557C705.556 407.728 705.419 399.581 705.697 391.782Z"/><path fill="#FBB59A" d="M815.823 435.607C820.885 441.088 821.81 445.968 821.725 453.079C821.529 469.44 806.368 472.916 793.227 472.224C783.115 471.692 785.958 471.918 779.758 476.448C777.423 478.154 761.602 480.243 758.415 480.075C758.625 479.557 758.485 479.817 758.854 479.309C757.533 478.456 748.008 477.742 745.947 477.796C739.475 477.938 732.142 480.073 725.825 477.802C720.799 475.994 718.351 471.347 712.359 472.315C710.744 472.576 709.526 472.088 707.702 472.883C707.584 485.454 706.777 497.68 706.089 510.228C705.962 512.546 705.976 514.968 705.749 517.268C705.523 509.56 705.723 501.426 705.797 493.684C706.583 487.361 706.104 479.038 707.035 471.151C730 471.474 752.967 471.589 775.933 471.497C785.307 471.398 795.172 471.621 804.477 470.577C822.092 468.602 825.16 448.796 815.452 436.591L815.823 435.607Z"/><path fill="#1E2829" d="M158.148 89.5766C156.464 88.2141 144.823 79.5064 144.577 78.9643L145.223 78.2647L145.778 78.3108C154.328 78.9555 164.388 78.2392 173.045 78.4867C175.899 78.5684 181.254 78.1768 183.785 78.8752C179.819 78.7486 157.125 78.3607 154.506 79.2062C152.889 83.7888 157.586 87.2472 158.148 89.5766Z"/><path fill="#F9F8F2" d="M265.909 323.394C265.967 321.896 265.688 321.641 266.464 320.817C273.59 320.238 287.45 320.656 295.118 320.667L346.384 320.61L513.666 320.596L593.41 320.571C598.061 320.564 623.843 320.239 627.183 320.973L627.095 321.582C626.955 332.657 628.031 352.012 627.203 361.778C598.427 361.535 569.649 361.499 540.873 361.67L366.514 361.555L298.694 361.554C288.802 361.568 275.326 362.106 265.852 361.644C266.099 350.57 266.564 334.232 265.909 323.394Z"/><path fill="#D8D6D6" d="M265.909 323.394C265.967 321.896 265.688 321.641 266.464 320.817C273.59 320.238 287.45 320.656 295.118 320.667L346.384 320.61L513.666 320.596L593.41 320.571C598.061 320.564 623.843 320.239 627.183 320.973L627.095 321.582C619.909 323.889 587.136 323.864 578.552 323.262L359.466 323.279L298.886 323.553C290.868 323.529 273.12 322.815 265.909 323.394Z"/><path fill="#F9F8F2" d="M265.904 210.886L419.797 210.995L627.164 210.949L627.288 251.835C625.682 252.066 619.57 251.926 617.636 251.914C610.974 251.858 604.311 251.836 597.648 251.848L523.238 251.895L266.016 251.952C265.941 238.137 266.375 224.777 265.904 210.886Z"/><path fill="#FBB59A" d="M709.815 482.687C711.486 482.333 715.747 481.746 716.818 483.193L716.248 483.947C713.425 484.256 711.304 485.232 709.815 482.687Z"/></svg>